<svg xmlns="http://www.w3.org/2000/svg" xmlns:xlink="http://www.w3.org/1999/xlink" width="500" zoomAndPan="magnify" viewBox="0 0 375 374.999991" height="500" preserveAspectRatio="xMidYMid meet" version="1.2"><defs><clipPath id="8935b36b8d"><path d="M 65.914062 171.242188 L 321.195312 171.242188 L 321.195312 204.878906 L 65.914062 204.878906 Z M 65.914062 171.242188 "/></clipPath></defs><g id="4b947a056f"><g style="fill:#f1f0ed;fill-opacity:1;"><g transform="translate(85.212351, 258.130113)"><path style="stroke:none" d="M 8.015625 0 L 8.015625 -144.1875 L 75.296875 -144.1875 L 102.140625 -58.484375 L 102.53125 -58.484375 L 129.765625 -144.1875 L 196.265625 -144.1875 L 196.265625 0 L 150.203125 0 L 150.203125 -86.921875 L 149.796875 -86.921875 L 121.15625 0 L 83.109375 0 L 54.46875 -86.921875 L 54.078125 -86.921875 L 54.078125 0 Z M 8.015625 0 "/></g></g><g clip-rule="nonzero" clip-path="url(#8935b36b8d)"><path style=" stroke:none;fill-rule:nonzero;fill:#000000;fill-opacity:1;" d="M 65.914062 171.242188 L 321.214844 171.242188 L 321.214844 204.878906 L 65.914062 204.878906 Z M 65.914062 171.242188 "/></g><g style="fill:#f1f0ed;fill-opacity:1;"><g transform="translate(116.562674, 191.810978)"><path style="stroke:none" d="M 9.984375 0 L 8.171875 0 L 7.296875 -5.15625 L 5.828125 0 L 4.21875 0 L 2.75 -5.15625 L 1.875 0 L 0.0625 0 L 1.5 -7.484375 L 3.46875 -7.484375 L 5.03125 -2.234375 L 6.578125 -7.484375 L 8.53125 -7.484375 Z M 9.984375 0 "/></g></g><g style="fill:#f1f0ed;fill-opacity:1;"><g transform="translate(132.967596, 191.810978)"><path style="stroke:none" d="M 4.734375 -2.859375 L 3.78125 -5.515625 L 2.84375 -2.859375 Z M 7.53125 0 L 5.75 0 L 5.21875 -1.5 L 2.359375 -1.5 L 1.828125 0 L 0.0625 0 L 3.09375 -7.484375 L 4.484375 -7.484375 Z M 7.53125 0 "/></g></g><g style="fill:#f1f0ed;fill-opacity:1;"><g transform="translate(146.910252, 191.810978)"><path style="stroke:none" d="M 2.3125 -2.671875 L 2.3125 0 L 0.65625 0 L 0.65625 -7.484375 L 3.46875 -7.484375 C 3.863281 -7.484375 4.234375 -7.378906 4.578125 -7.171875 C 4.929688 -6.972656 5.210938 -6.691406 5.421875 -6.328125 C 5.640625 -5.972656 5.75 -5.554688 5.75 -5.078125 C 5.75 -4.660156 5.671875 -4.289062 5.515625 -3.96875 C 5.367188 -3.644531 5.164062 -3.378906 4.90625 -3.171875 C 4.644531 -2.972656 4.359375 -2.832031 4.046875 -2.75 L 6.1875 0 L 4.109375 0 L 2.328125 -2.671875 Z M 3.1875 -6.1875 L 2.3125 -6.1875 L 2.3125 -3.96875 L 3.1875 -3.96875 C 3.425781 -3.96875 3.648438 -4.0625 3.859375 -4.25 C 4.078125 -4.445312 4.1875 -4.722656 4.1875 -5.078125 C 4.1875 -5.421875 4.078125 -5.691406 3.859375 -5.890625 C 3.648438 -6.085938 3.425781 -6.1875 3.1875 -6.1875 Z M 3.1875 -6.1875 "/></g></g><g style="fill:#f1f0ed;fill-opacity:1;"><g transform="translate(159.335983, 191.810978)"><path style="stroke:none" d="M 6.0625 -2.546875 L 7.890625 -2.546875 C 7.722656 -2.023438 7.457031 -1.566406 7.09375 -1.171875 C 6.738281 -0.773438 6.316406 -0.460938 5.828125 -0.234375 C 5.335938 -0.00390625 4.804688 0.109375 4.234375 0.109375 C 3.703125 0.109375 3.203125 0.0078125 2.734375 -0.1875 C 2.273438 -0.382812 1.867188 -0.660156 1.515625 -1.015625 C 1.160156 -1.367188 0.882812 -1.78125 0.6875 -2.25 C 0.488281 -2.71875 0.390625 -3.210938 0.390625 -3.734375 C 0.390625 -4.265625 0.488281 -4.757812 0.6875 -5.21875 C 0.882812 -5.6875 1.160156 -6.097656 1.515625 -6.453125 C 1.867188 -6.816406 2.273438 -7.097656 2.734375 -7.296875 C 3.203125 -7.492188 3.703125 -7.59375 4.234375 -7.59375 C 4.804688 -7.59375 5.335938 -7.476562 5.828125 -7.25 C 6.316406 -7.019531 6.738281 -6.707031 7.09375 -6.3125 C 7.457031 -5.925781 7.722656 -5.476562 7.890625 -4.96875 L 6.046875 -4.96875 C 5.890625 -5.300781 5.644531 -5.5625 5.3125 -5.75 C 4.976562 -5.945312 4.617188 -6.046875 4.234375 -6.046875 C 3.828125 -6.046875 3.457031 -5.941406 3.125 -5.734375 C 2.800781 -5.523438 2.539062 -5.242188 2.34375 -4.890625 C 2.15625 -4.546875 2.0625 -4.160156 2.0625 -3.734375 C 2.0625 -3.316406 2.15625 -2.929688 2.34375 -2.578125 C 2.539062 -2.234375 2.800781 -1.957031 3.125 -1.75 C 3.457031 -1.539062 3.828125 -1.4375 4.234375 -1.4375 C 4.617188 -1.4375 4.976562 -1.535156 5.3125 -1.734375 C 5.65625 -1.941406 5.90625 -2.210938 6.0625 -2.546875 Z M 6.0625 -2.546875 "/></g></g><g style="fill:#f1f0ed;fill-opacity:1;"><g transform="translate(173.872222, 191.810978)"><path style="stroke:none" d=""/></g></g><g style="fill:#f1f0ed;fill-opacity:1;"><g transform="translate(182.989294, 191.810978)"><path style="stroke:none" d="M 9.984375 0 L 8.171875 0 L 7.296875 -5.15625 L 5.828125 0 L 4.21875 0 L 2.75 -5.15625 L 1.875 0 L 0.0625 0 L 1.5 -7.484375 L 3.46875 -7.484375 L 5.03125 -2.234375 L 6.578125 -7.484375 L 8.53125 -7.484375 Z M 9.984375 0 "/></g></g><g style="fill:#f1f0ed;fill-opacity:1;"><g transform="translate(199.394216, 191.810978)"><path style="stroke:none" d="M 5 -1.5 L 5 0 L 0.65625 0 L 0.65625 -7.484375 L 5 -7.484375 L 5 -5.984375 L 2.3125 -5.984375 L 2.3125 -4.5 L 4.890625 -4.5 L 4.890625 -3 L 2.3125 -3 L 2.3125 -1.5 Z M 5 -1.5 "/></g></g><g style="fill:#f1f0ed;fill-opacity:1;"><g transform="translate(211.413235, 191.810978)"><path style="stroke:none" d="M 0.65625 0 L 0.65625 -7.484375 L 2.3125 -7.484375 L 2.3125 -1.5 L 5 -1.5 L 5 0 Z M 0.65625 0 "/></g></g><g style="fill:#f1f0ed;fill-opacity:1;"><g transform="translate(223.157447, 191.810978)"><path style="stroke:none" d="M 4.40625 -6.046875 C 4.007812 -6.046875 3.644531 -5.9375 3.3125 -5.71875 C 2.976562 -5.507812 2.710938 -5.226562 2.515625 -4.875 C 2.316406 -4.53125 2.21875 -4.144531 2.21875 -3.71875 C 2.21875 -3.300781 2.316406 -2.914062 2.515625 -2.5625 C 2.710938 -2.207031 2.976562 -1.921875 3.3125 -1.703125 C 3.644531 -1.492188 4.007812 -1.390625 4.40625 -1.390625 C 4.644531 -1.390625 4.894531 -1.421875 5.15625 -1.484375 C 5.425781 -1.554688 5.675781 -1.691406 5.90625 -1.890625 C 6.144531 -2.085938 6.328125 -2.375 6.453125 -2.75 L 4.546875 -2.75 L 4.546875 -4 L 8.234375 -4 L 8.234375 -3.734375 C 8.234375 -3.210938 8.132812 -2.71875 7.9375 -2.25 C 7.738281 -1.78125 7.460938 -1.367188 7.109375 -1.015625 C 6.765625 -0.660156 6.359375 -0.382812 5.890625 -0.1875 C 5.429688 0.0078125 4.9375 0.109375 4.40625 0.109375 C 3.875 0.109375 3.375 0.0078125 2.90625 -0.1875 C 2.445312 -0.394531 2.039062 -0.671875 1.6875 -1.015625 C 1.332031 -1.367188 1.050781 -1.78125 0.84375 -2.25 C 0.644531 -2.71875 0.546875 -3.210938 0.546875 -3.734375 C 0.546875 -4.265625 0.644531 -4.757812 0.84375 -5.21875 C 1.050781 -5.6875 1.332031 -6.097656 1.6875 -6.453125 C 2.039062 -6.804688 2.445312 -7.082031 2.90625 -7.28125 C 3.375 -7.488281 3.875 -7.59375 4.40625 -7.59375 C 4.945312 -7.59375 5.460938 -7.476562 5.953125 -7.25 C 6.453125 -7.03125 6.882812 -6.722656 7.25 -6.328125 C 7.613281 -5.929688 7.878906 -5.476562 8.046875 -4.96875 L 6.234375 -4.96875 C 6.054688 -5.363281 5.796875 -5.640625 5.453125 -5.796875 C 5.117188 -5.960938 4.769531 -6.046875 4.40625 -6.046875 Z M 4.40625 -6.046875 "/></g></g><g style="fill:#f1f0ed;fill-opacity:1;"><g transform="translate(238.144366, 191.810978)"><path style="stroke:none" d="M 4.734375 -2.859375 L 3.78125 -5.515625 L 2.84375 -2.859375 Z M 7.53125 0 L 5.75 0 L 5.21875 -1.5 L 2.359375 -1.5 L 1.828125 0 L 0.0625 0 L 3.09375 -7.484375 L 4.484375 -7.484375 Z M 7.53125 0 "/></g></g><g style="fill:#f1f0ed;fill-opacity:1;"><g transform="translate(252.087022, 191.810978)"><path style="stroke:none" d="M 2.3125 -2.671875 L 2.3125 0 L 0.65625 0 L 0.65625 -7.484375 L 3.46875 -7.484375 C 3.863281 -7.484375 4.234375 -7.378906 4.578125 -7.171875 C 4.929688 -6.972656 5.210938 -6.691406 5.421875 -6.328125 C 5.640625 -5.972656 5.75 -5.554688 5.75 -5.078125 C 5.75 -4.660156 5.671875 -4.289062 5.515625 -3.96875 C 5.367188 -3.644531 5.164062 -3.378906 4.90625 -3.171875 C 4.644531 -2.972656 4.359375 -2.832031 4.046875 -2.75 L 6.1875 0 L 4.109375 0 L 2.328125 -2.671875 Z M 3.1875 -6.1875 L 2.3125 -6.1875 L 2.3125 -3.96875 L 3.1875 -3.96875 C 3.425781 -3.96875 3.648438 -4.0625 3.859375 -4.25 C 4.078125 -4.445312 4.1875 -4.722656 4.1875 -5.078125 C 4.1875 -5.421875 4.078125 -5.691406 3.859375 -5.890625 C 3.648438 -6.085938 3.425781 -6.1875 3.1875 -6.1875 Z M 3.1875 -6.1875 "/></g></g></g></svg>